<?xml version="1.0" standalone="no"?>
<!DOCTYPE svg PUBLIC "-//W3C//DTD SVG 20010904//EN"
 "http://www.w3.org/TR/2001/REC-SVG-20010904/DTD/svg10.dtd">
<svg version="1.0" xmlns="http://www.w3.org/2000/svg"
 width="512.000000pt" height="512.000000pt" viewBox="0 0 512.000000 512.000000"
 preserveAspectRatio="xMidYMid meet">
<metadata>
Created by potrace 1.14, written by Peter Selinger 2001-2017
</metadata>
<g transform="translate(0.000000,512.000000) scale(0.100000,-0.100000)"
fill="#000000" stroke="none">
<path d="M1900 4556 c0 -8 -13 -17 -29 -21 -22 -5 -31 -14 -36 -36 -4 -16 -13
-29 -21 -29 -8 0 -14 -10 -14 -25 0 -14 -9 -33 -20 -42 -15 -13 -20 -30 -20
-65 0 -41 3 -48 20 -48 16 0 20 -7 20 -35 0 -24 5 -35 15 -35 11 0 15 -12 15
-50 0 -48 1 -49 35 -56 20 -3 35 -12 35 -20 0 -10 15 -14 56 -14 54 0 56 -1
50 -22 -3 -13 -6 -26 -6 -30 0 -4 -53 -9 -117 -10 l-118 -3 -3 -37 c-2 -25 -8
-38 -18 -38 -10 0 -14 -13 -14 -50 l0 -50 175 0 c149 0 175 2 175 15 0 8 7 15
15 15 8 0 15 9 15 20 0 11 6 20 14 20 15 0 26 30 26 73 0 17 5 27 15 27 12 0
15 18 15 105 0 87 -3 105 -15 105 -8 0 -15 9 -15 20 0 13 -7 20 -20 20 -11 0
-20 7 -20 15 0 12 -14 15 -70 15 l-70 0 0 35 c0 24 5 35 15 35 8 0 15 7 15 15
0 12 19 15 110 15 87 0 110 3 110 14 0 8 7 16 15 20 11 4 15 22 15 76 l0 70
-175 0 c-145 0 -175 -2 -175 -14z"/>
<path d="M2453 4550 c-3 -11 -12 -20 -19 -20 -8 0 -14 -9 -14 -20 0 -11 -6
-20 -14 -20 -8 0 -15 -16 -19 -42 -3 -23 -13 -45 -21 -50 -11 -6 -16 -24 -16
-58 0 -37 -4 -50 -15 -50 -8 0 -17 -14 -21 -35 -3 -20 -12 -35 -20 -35 -10 0
-14 -14 -14 -50 0 -38 -4 -50 -15 -50 -10 0 -15 -11 -15 -35 0 -23 -5 -35 -14
-35 -15 0 -26 -30 -26 -72 0 -18 -5 -28 -15 -28 -12 0 -15 -13 -15 -55 l0 -55
85 0 84 0 7 50 c4 32 11 50 20 50 9 0 14 12 14 35 l0 35 50 0 50 0 0 -85 0
-85 175 0 175 0 0 50 c0 36 4 50 14 50 10 0 15 22 18 86 3 59 9 88 19 94 9 6
15 34 17 90 3 60 8 80 18 80 8 0 14 7 14 15 0 8 7 15 16 15 9 0 18 9 21 20 3
11 12 20 19 20 8 0 14 7 14 15 0 11 11 15 36 15 l36 0 -4 -80 c-2 -58 -7 -83
-18 -90 -11 -7 -16 -33 -19 -95 -2 -64 -6 -85 -17 -85 -11 0 -14 -19 -14 -85
0 -69 -3 -85 -15 -85 -8 0 -15 -7 -15 -15 0 -12 18 -15 99 -15 l98 0 7 82 c4
47 12 86 19 90 7 4 13 40 16 93 2 64 6 85 17 85 10 0 14 14 14 54 0 29 3 74 6
100 l7 46 63 0 64 0 0 55 c0 40 4 55 14 55 15 0 30 45 21 60 -4 6 -86 10 -196
10 -161 0 -189 -2 -189 -15 0 -8 -7 -15 -15 -15 -8 0 -15 -9 -15 -20 0 -34
-28 -23 -32 13 l-3 32 -87 3 -88 3 0 -36 c0 -23 -5 -35 -14 -35 -10 0 -15 -24
-20 -87 -4 -49 -13 -91 -19 -95 -7 -4 -13 -44 -15 -103 -3 -73 -7 -95 -18 -95
-10 0 -14 -12 -14 -39 0 -59 -12 -131 -21 -131 -5 0 -10 138 -11 308 l-3 307
-103 3 c-97 3 -104 1 -109 -18z m517 -70 c0 -5 -7 -10 -15 -10 -8 0 -15 5 -15
10 0 6 7 10 15 10 8 0 15 -4 15 -10z m-480 -310 c0 -38 -4 -50 -15 -50 -11 0
-15 12 -15 50 0 38 4 50 15 50 11 0 15 -12 15 -50z"/>
<path d="M1032 2543 l3 -1158 88 -3 87 -3 0 -84 c0 -69 3 -85 15 -85 8 0 14
-6 13 -12 -3 -15 927 -25 2005 -20 582 2 667 4 667 17 0 8 9 15 20 15 18 0 20
7 20 85 l0 85 85 0 85 0 0 1160 0 1160 -1545 0 -1545 0 2 -1157z m2876 0 l-3
-948 -85 0 -85 0 -3 83 -3 82 -374 0 -375 0 0 -79 0 -78 -30 -6 c-16 -4 -405
-7 -865 -7 l-835 0 0 950 0 950 1330 0 1330 0 -2 -947z"/>
<path d="M2420 3305 c0 -11 -12 -15 -50 -15 -37 0 -55 -5 -70 -20 -11 -11 -33
-20 -50 -20 -19 0 -30 -5 -30 -14 0 -8 -15 -17 -35 -20 -21 -4 -35 -13 -35
-21 0 -8 -9 -15 -20 -15 -11 0 -20 -7 -20 -15 0 -8 -9 -15 -20 -15 -11 0 -20
-7 -20 -15 0 -8 -7 -15 -15 -15 -8 0 -15 -9 -15 -20 0 -13 -7 -20 -20 -20 -11
0 -20 -7 -20 -15 0 -8 -7 -15 -15 -15 -8 0 -15 -9 -15 -20 0 -11 -6 -20 -14
-20 -8 0 -17 -15 -20 -35 -4 -21 -13 -35 -21 -35 -8 0 -15 -7 -15 -15 0 -8 -6
-15 -14 -15 -8 0 -17 -15 -20 -34 -4 -19 -13 -37 -21 -40 -11 -4 -15 -21 -15
-56 0 -38 -4 -50 -15 -50 -13 0 -15 -28 -15 -190 0 -162 2 -190 15 -190 11 0
15 -12 15 -50 0 -36 4 -50 14 -50 8 0 17 -15 20 -35 4 -19 13 -35 20 -35 8 0
17 -16 20 -35 4 -21 13 -35 21 -35 8 0 15 -9 15 -20 0 -11 7 -20 15 -20 8 0
15 -7 15 -15 0 -8 6 -15 14 -15 7 0 16 -9 19 -20 3 -11 12 -20 21 -20 9 0 16
-7 16 -15 0 -8 6 -15 14 -15 7 0 16 -9 19 -20 3 -11 12 -20 21 -20 9 0 16 -7
16 -15 0 -10 11 -15 35 -15 24 0 35 -5 35 -15 0 -8 6 -15 14 -15 7 0 16 -9 19
-20 4 -16 14 -20 51 -20 34 0 46 -4 46 -15 0 -12 13 -15 55 -15 40 0 55 -4 55
-14 0 -21 33 -26 178 -26 111 0 132 2 132 15 0 8 9 16 20 16 11 1 25 3 30 4 6
1 28 3 50 4 27 1 40 6 40 15 0 8 15 17 35 20 21 4 35 13 35 21 0 8 9 15 20 15
11 0 20 7 20 15 0 10 10 15 29 15 16 0 31 6 35 15 3 8 12 15 21 15 8 0 15 9
15 20 0 13 7 20 20 20 11 0 20 7 20 15 0 8 7 15 15 15 8 0 15 9 15 20 0 13 7
20 20 20 11 0 20 6 20 14 0 8 7 16 15 20 9 3 15 18 15 36 0 20 5 30 15 30 8 0
15 9 15 20 0 13 7 20 20 20 16 0 20 7 20 35 0 24 5 35 15 35 11 0 15 11 16 38
1 57 8 86 24 95 22 12 22 317 1 317 -10 0 -16 20 -21 70 -5 50 -11 70 -21 70
-9 0 -14 12 -14 35 0 28 -4 35 -20 35 -11 0 -20 7 -20 15 0 8 -7 15 -15 15
-10 0 -15 11 -15 35 0 28 -4 35 -20 35 -13 0 -20 7 -20 20 0 11 -7 20 -15 20
-8 0 -15 7 -15 15 0 8 -7 15 -15 15 -8 0 -15 7 -15 16 0 9 -9 18 -20 21 -11 3
-20 12 -20 19 0 8 -7 14 -15 14 -8 0 -15 7 -15 15 0 8 -9 15 -20 15 -11 0 -20
7 -20 15 0 8 -14 17 -35 21 -19 3 -35 12 -35 19 0 7 -16 16 -35 19 -21 4 -35
13 -35 21 0 11 -14 15 -55 15 -42 0 -55 3 -55 15 0 13 -26 15 -170 15 -144 0
-170 -2 -170 -15z m218 -405 c20 0 31 -5 30 -12 -2 -9 13 -14 43 -16 37 -2 48
-7 52 -23 3 -10 12 -19 21 -19 9 0 16 -7 16 -15 0 -8 9 -15 20 -15 11 0 20 -7
20 -15 0 -8 7 -15 15 -15 8 0 15 -9 15 -20 0 -11 7 -20 15 -20 10 0 15 -10 15
-31 0 -22 5 -32 20 -36 19 -5 20 -14 20 -124 0 -95 -3 -119 -14 -119 -15 0
-26 -30 -26 -72 0 -18 -5 -28 -15 -28 -8 0 -15 -6 -15 -14 0 -7 -9 -16 -20
-19 -11 -3 -20 -12 -20 -21 0 -9 -7 -16 -15 -16 -8 0 -15 -6 -15 -14 0 -8 -15
-17 -35 -20 -21 -4 -35 -13 -35 -21 0 -11 -13 -15 -50 -15 -38 0 -50 -4 -50
-15 0 -12 -14 -15 -70 -15 -51 0 -69 3 -68 13 2 8 -14 13 -49 15 -45 3 -53 6
-53 23 0 12 -7 19 -20 19 -11 0 -20 7 -20 15 0 8 -7 15 -15 15 -8 0 -15 7 -15
15 0 8 -7 15 -15 15 -8 0 -15 7 -15 16 0 9 -9 18 -20 21 -15 4 -20 14 -20 39
0 22 -5 34 -14 34 -17 0 -26 105 -19 207 4 52 10 73 19 73 10 0 14 13 14 40 0
29 5 42 20 50 11 6 20 17 20 25 0 8 7 15 15 15 8 0 15 6 15 14 0 7 15 18 33
23 17 5 31 15 30 21 -2 7 10 12 32 12 18 0 38 6 42 14 11 19 40 25 98 21 28
-3 65 -5 83 -5z"/>
<path d="M1018 1073 c-15 -4 -18 -16 -18 -74 0 -52 -3 -69 -14 -69 -10 0 -15
-25 -20 -102 -7 -129 -7 -126 -23 -132 -10 -4 -13 -32 -13 -111 0 -87 -3 -105
-15 -105 -12 0 -15 -14 -15 -70 l0 -70 70 0 c63 0 70 2 70 20 0 11 7 20 15 20
11 0 15 11 15 39 0 21 3 59 6 85 l7 46 83 0 c77 0 84 2 84 20 0 11 7 20 15 20
8 0 15 9 15 20 0 11 7 20 15 20 13 0 15 -21 15 -125 0 -100 3 -125 14 -125 7
0 16 -9 19 -20 5 -19 13 -20 139 -20 165 0 178 3 178 41 0 22 5 29 20 29 18 0
20 7 20 55 0 42 3 55 15 55 13 0 15 20 15 120 0 100 3 120 15 120 10 0 15 11
15 35 0 28 4 35 20 35 18 0 20 -7 20 -65 0 -51 3 -65 15 -65 8 0 15 -8 15 -19
0 -20 34 -31 101 -31 l39 0 0 -65 c0 -51 -3 -65 -15 -65 -8 0 -15 -7 -15 -15
0 -12 -17 -15 -90 -15 -83 0 -90 -1 -90 -20 0 -11 -7 -20 -15 -20 -11 0 -15
-12 -15 -49 0 -61 0 -61 178 -61 125 0 132 1 132 20 0 13 7 20 20 20 11 0 19
3 19 8 -1 4 -1 26 0 50 1 30 5 42 16 42 13 0 15 22 15 140 0 113 -3 140 -14
140 -7 0 -16 9 -19 20 -4 17 -14 20 -71 20 l-66 0 0 50 0 50 100 0 100 0 0
-50 c0 -43 3 -50 20 -50 15 0 20 7 20 29 0 24 5 30 30 35 18 3 30 12 30 21 0
8 9 15 20 15 18 0 20 -7 20 -70 0 -53 -3 -70 -14 -70 -10 0 -15 -26 -20 -107
-8 -138 -7 -133 -23 -133 -10 0 -13 -22 -13 -90 l0 -91 73 3 72 3 3 53 c2 37
7 52 18 52 11 0 14 22 14 120 0 100 3 120 15 120 11 0 15 13 15 53 0 28 3 76
6 105 l7 52 48 0 c48 0 49 1 49 30 0 20 5 30 15 30 12 0 15 13 15 60 l0 60
-132 0 c-145 0 -178 -5 -178 -26 0 -8 -9 -14 -20 -14 -11 0 -20 -7 -20 -15 0
-8 -7 -15 -15 -15 -10 0 -15 10 -15 29 0 37 -15 41 -151 41 -124 0 -169 -7
-169 -26 0 -8 -7 -14 -15 -14 -8 0 -15 -7 -15 -15 0 -8 -6 -15 -14 -15 -8 0
-17 -15 -20 -35 -8 -43 -22 -45 -31 -5 -4 17 -13 30 -21 30 -8 0 -14 9 -14 20
0 11 -7 20 -15 20 -8 0 -15 6 -15 14 0 17 -44 26 -125 26 -81 0 -125 -9 -125
-26 0 -8 -7 -14 -15 -14 -8 0 -15 -7 -15 -16 0 -9 -9 -18 -20 -21 -17 -4 -20
-14 -20 -54 0 -37 -4 -49 -15 -49 -11 0 -15 12 -15 50 0 36 -4 52 -15 56 -8 4
-15 12 -15 20 0 8 -9 14 -20 14 -13 0 -20 7 -20 20 0 19 -6 20 -122 19 -68 -1
-131 -3 -140 -6z m1162 -103 c0 -20 -5 -30 -15 -30 -10 0 -15 10 -15 30 0 20
5 30 15 30 10 0 15 -10 15 -30z m-970 -119 c0 -70 -2 -79 -20 -84 -15 -4 -20
-14 -20 -36 0 -28 -3 -31 -30 -31 l-30 0 0 65 c0 51 3 65 15 65 11 0 15 12 15
50 l0 50 35 0 35 0 0 -79z m380 -71 c0 -120 -3 -150 -14 -150 -14 0 -26 -49
-26 -107 0 -23 -5 -33 -15 -33 -8 0 -15 -9 -15 -20 0 -11 -7 -20 -15 -20 -8 0
-15 9 -15 20 0 11 -7 20 -15 20 -18 0 -22 66 -4 72 13 4 17 43 18 156 1 66 4
82 16 82 11 0 15 12 15 50 0 43 3 50 20 50 11 0 20 7 20 15 0 8 7 15 15 15 13
0 15 -23 15 -150z m-246 -75 c3 -9 0 -15 -9 -15 -8 0 -15 7 -15 15 0 8 4 15 9
15 5 0 11 -7 15 -15z"/>
<path d="M2613 1073 c-22 -4 -23 -9 -23 -89 0 -68 -3 -84 -15 -84 -12 0 -15
-18 -15 -100 0 -78 -3 -100 -14 -100 -18 0 -26 -45 -26 -156 0 -78 -3 -94 -16
-94 -12 0 -14 -10 -12 -52 l3 -53 68 -3 67 -3 0 56 c0 42 4 55 15 55 10 0 16
16 21 50 9 69 34 69 34 0 0 -37 4 -50 14 -50 11 0 16 -15 18 -52 l3 -53 68 -3
67 -3 0 76 c0 60 -3 75 -15 75 -10 0 -15 10 -15 30 0 19 5 30 14 30 8 0 17 15
20 35 13 67 26 35 26 -62 0 -111 6 -143 26 -143 8 0 14 -9 14 -20 0 -19 7 -20
133 -20 160 0 174 3 182 41 4 16 13 29 21 29 10 0 14 14 14 55 0 40 4 55 14
55 10 0 14 28 19 117 3 67 10 119 16 121 6 2 13 19 17 38 3 19 12 34 20 34 11
0 14 -24 14 -120 0 -96 -3 -120 -14 -120 -10 0 -15 -16 -18 -54 -4 -67 0 -86
18 -86 10 0 14 -14 14 -55 l0 -55 155 0 155 0 0 38 c0 20 3 61 6 90 l7 52 -92
0 -91 0 0 65 0 65 63 0 c106 0 107 1 107 81 l0 69 -65 0 -65 0 0 29 c0 16 6
31 15 35 8 3 15 12 15 21 0 12 15 15 84 15 l85 0 7 48 c4 26 10 49 14 52 4 3
11 19 14 36 7 29 5 32 -25 38 -41 8 -247 8 -288 0 -17 -4 -31 -12 -31 -19 0
-7 -9 -15 -20 -18 -11 -3 -20 -12 -20 -21 0 -9 -7 -16 -15 -16 -10 0 -15 -11
-15 -35 0 -46 -26 -47 -34 -1 -4 19 -13 37 -21 40 -8 3 -15 12 -15 21 0 8 -7
15 -15 15 -8 0 -15 6 -15 14 0 19 -32 26 -116 26 -90 0 -134 -9 -134 -26 0 -8
-7 -14 -15 -14 -8 0 -15 -9 -15 -20 0 -11 -6 -20 -14 -20 -15 0 -26 -30 -26
-72 0 -18 -5 -28 -15 -28 -11 0 -15 12 -15 50 0 38 -4 50 -15 50 -8 0 -15 9
-15 20 0 11 -6 20 -14 20 -7 0 -16 9 -19 20 -5 19 -13 20 -124 19 -65 -1 -128
-4 -140 -6z m157 -158 c0 -8 7 -15 15 -15 11 0 15 -12 15 -50 0 -38 -4 -50
-15 -50 -11 0 -15 -11 -15 -36 0 -27 -5 -37 -20 -41 -11 -3 -20 -9 -20 -14 0
-5 -7 -9 -15 -9 -12 0 -15 16 -15 80 0 64 3 80 15 80 10 0 15 11 15 35 0 28 4
35 20 35 11 0 20 -7 20 -15z m411 -2 c3 -10 3 -78 1 -150 -3 -100 -7 -133 -17
-133 -8 0 -15 -23 -19 -70 -5 -51 -11 -70 -22 -70 -8 0 -14 -9 -14 -20 0 -11
-7 -20 -15 -20 -8 0 -15 9 -15 20 0 11 -7 20 -15 20 -11 0 -15 12 -15 44 0 30
5 46 15 50 12 4 15 26 15 111 0 87 3 105 15 105 10 0 15 10 15 28 0 42 11 72
26 72 8 0 14 7 14 15 0 21 27 19 31 -2z"/>
<path d="M3858 1074 c-15 -5 -18 -18 -18 -90 0 -65 -3 -84 -14 -84 -19 0 -26
-32 -26 -127 0 -67 -3 -83 -15 -83 -12 0 -15 -18 -15 -105 0 -82 -3 -105 -14
-105 -14 0 -32 -111 -21 -130 3 -6 37 -10 76 -10 62 0 69 2 69 20 0 11 7 20
15 20 12 0 15 18 15 105 0 82 3 105 14 105 9 0 15 -16 19 -46 2 -26 9 -49 15
-53 5 -3 13 -39 17 -79 l7 -73 87 3 86 3 3 30 c2 17 10 34 18 38 11 6 14 33
14 112 0 87 3 105 15 105 12 0 15 19 15 115 0 93 3 115 14 115 19 0 28 62 24
150 -3 64 -4 65 -32 68 -17 2 -49 1 -73 -3 l-43 -6 0 -70 c0 -55 -3 -69 -15
-69 -8 0 -14 -5 -12 -12 1 -6 -5 -13 -14 -15 -14 -4 -17 8 -20 76 -2 44 -8 83
-12 88 -10 9 -152 14 -179 7z"/>
</g>
</svg>
