<?xml version="1.0" standalone="no"?>
<!DOCTYPE svg PUBLIC "-//W3C//DTD SVG 20010904//EN"
 "http://www.w3.org/TR/2001/REC-SVG-20010904/DTD/svg10.dtd">
<svg version="1.0" xmlns="http://www.w3.org/2000/svg"
 width="260.000000pt" height="260.000000pt" viewBox="0 0 260.000000 260.000000"
 preserveAspectRatio="xMidYMid meet">
<metadata>
Created by potrace 1.14, written by Peter Selinger 2001-2017
</metadata>
<g transform="translate(0.000000,260.000000) scale(0.100000,-0.100000)"
fill="#000000" stroke="none">
<path d="M948 2306 c-10 -7 -18 -18 -18 -25 0 -6 -4 -11 -10 -11 -5 0 -10 -9
-10 -19 0 -11 -4 -23 -10 -26 -12 -7 -14 -45 -2 -45 9 0 32 -49 32 -69 0 -17
43 -41 72 -41 10 0 18 -7 18 -15 0 -12 -14 -15 -64 -15 -63 0 -64 0 -70 -31
-12 -61 -14 -60 85 -57 89 3 91 3 106 33 31 58 33 65 33 114 0 41 -4 51 -20
56 -11 3 -20 11 -20 16 0 5 -16 9 -35 9 -23 0 -35 5 -35 14 0 23 24 35 80 38
l55 3 3 43 3 42 -88 0 c-57 -1 -94 -5 -105 -14z"/>
<path d="M1228 2289 c-10 -17 -18 -37 -18 -45 0 -8 -4 -14 -10 -14 -5 0 -10
-8 -10 -19 0 -10 -7 -32 -15 -47 -8 -16 -15 -39 -15 -51 0 -13 -4 -23 -10 -23
-5 0 -10 -7 -10 -15 0 -8 -4 -24 -10 -35 -5 -11 -14 -29 -20 -40 -21 -41 -13
-50 40 -50 44 0 50 3 50 21 0 32 19 59 40 59 17 0 20 -7 20 -40 l0 -40 90 0
c87 0 90 1 90 23 0 13 4 27 9 33 5 5 11 27 15 49 14 99 20 118 47 146 43 44
57 39 48 -18 -18 -117 -36 -210 -43 -222 -6 -9 5 -11 46 -9 l53 3 6 45 c4 25
12 72 18 105 6 33 14 75 17 93 4 27 9 32 32 32 23 0 30 7 40 33 20 57 20 57
-87 57 -79 0 -100 -3 -105 -15 -3 -8 -10 -15 -16 -15 -5 0 -10 7 -10 15 0 11
-11 15 -43 15 -42 0 -43 -1 -54 -42 -19 -72 -43 -197 -45 -236 -1 -20 -5 33
-8 118 l-5 155 -55 3 c-52 2 -56 1 -72 -29z m29 -186 c-3 -10 -5 -4 -5 12 0
17 2 24 5 18 2 -7 2 -21 0 -30z"/>
<path d="M520 1290 l0 -590 44 0 45 0 3 -47 3 -48 690 0 690 0 3 48 3 47 45 0
44 0 0 590 0 590 -785 0 -785 0 0 -590z m1460 0 l0 -480 -44 0 -45 0 -3 43 -3
42 -187 3 -188 2 0 -45 0 -45 -440 0 -440 0 0 480 0 480 675 0 675 0 0 -480z"/>
<path d="M1235 1680 c-3 -5 -16 -10 -29 -10 -39 0 -126 -49 -177 -100 -27 -27
-49 -51 -49 -54 0 -3 -11 -22 -25 -42 -14 -20 -25 -47 -25 -60 0 -12 -4 -26
-10 -29 -5 -3 -10 -46 -10 -96 0 -53 4 -89 10 -89 6 0 10 -13 10 -30 0 -16 4
-30 8 -30 4 0 14 -16 21 -36 16 -44 102 -133 151 -155 168 -77 222 -78 378 -8
105 48 164 123 211 270 14 44 15 159 1 159 -5 0 -10 16 -10 35 0 19 -4 35 -10
35 -5 0 -10 9 -10 20 0 11 -4 20 -8 20 -4 0 -16 15 -27 33 -41 69 -164 157
-220 157 -13 0 -27 5 -30 10 -3 6 -37 10 -75 10 -38 0 -72 -4 -75 -10z m194
-255 c23 -21 41 -46 41 -57 0 -10 5 -18 10 -18 14 0 13 -103 -2 -137 -18 -42
-86 -103 -114 -103 -13 0 -24 -4 -24 -10 0 -5 -16 -10 -35 -10 -19 0 -35 5
-35 10 0 6 -10 10 -23 10 -37 0 -105 70 -116 121 -11 47 3 159 20 159 5 0 9 5
9 11 0 14 25 39 39 39 6 0 11 4 11 9 0 14 37 20 111 17 62 -3 70 -6 108 -41z"/>
<path d="M510 510 c0 -22 -4 -40 -10 -40 -5 0 -10 -24 -10 -53 0 -29 -4 -57
-9 -63 -5 -5 -11 -36 -15 -69 -3 -33 -7 -71 -8 -85 -3 -22 1 -25 32 -28 30 -2
37 2 48 25 6 15 12 40 12 55 0 26 2 28 44 28 36 0 46 4 51 21 10 31 20 13 16
-32 -1 -23 3 -54 10 -70 l12 -30 81 3 80 3 18 55 c9 30 17 75 18 100 1 48 29
117 30 73 0 -12 5 -34 12 -48 9 -19 19 -25 45 -25 31 0 33 -2 33 -34 0 -38
-12 -46 -70 -46 -40 0 -50 -11 -50 -56 0 -23 2 -24 79 -24 l79 0 16 40 c19 48
22 170 4 188 -7 7 -25 12 -40 12 -21 0 -28 5 -28 20 0 17 7 20 50 20 47 0 50
-1 50 -26 l0 -27 25 27 c32 34 45 33 45 -4 0 -16 -4 -30 -9 -30 -5 0 -12 -26
-15 -57 -3 -32 -8 -82 -12 -111 l-6 -53 38 3 39 3 17 90 c10 50 17 111 18 138
0 43 2 47 25 47 28 0 45 25 45 69 l0 31 -76 0 c-64 0 -79 -3 -94 -20 l-18 -20
-5 20 c-5 18 -13 20 -77 20 -62 0 -74 -3 -95 -25 -14 -13 -25 -30 -25 -37 0
-7 -8 -1 -17 12 -31 44 -41 50 -90 50 -57 0 -99 -30 -106 -75 l-4 -30 -2 27
c0 16 -11 39 -23 53 -19 22 -29 25 -90 25 l-68 0 0 -40z m100 -76 c0 -41 -15
-74 -34 -74 -10 0 -11 12 -3 55 12 64 37 77 37 19z m190 -81 c-14 -103 -28
-134 -50 -108 -7 8 -9 23 -6 32 4 10 11 51 16 92 10 77 25 110 43 92 7 -7 6
-42 -3 -108z"/>
<path d="M1315 533 c-3 -10 -9 -55 -12 -100 -3 -46 -9 -83 -14 -83 -4 0 -10
-26 -13 -57 -3 -32 -6 -71 -8 -88 -3 -28 -1 -30 32 -30 34 0 35 1 44 53 5 28
13 52 16 52 4 0 11 -24 16 -52 9 -52 10 -53 47 -56 35 -3 37 -2 37 28 0 16 -6
39 -12 50 -9 15 -10 23 -2 28 6 4 14 14 17 22 3 8 6 -10 7 -40 1 -80 12 -90
102 -90 70 0 75 1 86 25 7 14 12 37 12 50 0 13 5 27 10 30 6 3 10 27 10 53 1
26 7 58 15 72 14 24 14 23 15 -28 0 -29 -5 -61 -12 -71 -9 -14 -8 -31 4 -72
l15 -54 76 -3 77 -3 0 51 0 50 -45 0 c-43 0 -45 1 -45 29 0 28 3 30 43 33 41
3 42 4 45 41 3 36 3 37 -32 37 -24 0 -36 5 -36 14 0 17 22 26 65 26 39 0 40 1
50 58 l7 42 -79 0 c-68 0 -82 -3 -105 -24 -16 -13 -28 -32 -28 -42 -1 -14 -5
-12 -17 11 -25 47 -39 55 -90 55 -59 0 -103 -32 -103 -76 -1 -28 -1 -28 -14 8
-21 58 -36 68 -109 68 -53 0 -66 -3 -72 -17z m103 -99 c2 -19 -6 -39 -22 -59
l-25 -30 -1 48 c0 26 5 47 10 47 6 0 10 7 10 16 0 28 25 8 28 -22z m191 -78
c-12 -102 -30 -145 -50 -115 -5 8 -7 28 -4 44 4 17 11 59 16 94 10 65 26 98
40 84 5 -5 3 -53 -2 -107z"/>
<path d="M1950 511 c0 -22 -4 -43 -10 -46 -5 -3 -10 -30 -10 -60 0 -30 -4 -56
-9 -59 -4 -3 -11 -36 -14 -73 -3 -38 -7 -75 -9 -83 -2 -11 7 -16 33 -18 30 -3
37 1 47 23 7 14 13 45 13 68 1 23 3 33 6 22 3 -11 9 -24 14 -30 5 -5 9 -26 9
-47 l0 -38 45 0 c38 0 45 3 45 20 0 11 4 20 9 20 5 0 11 28 15 63 3 34 12 108
19 165 7 56 11 105 8 107 -2 3 -19 5 -38 5 -31 0 -33 -2 -33 -36 0 -19 -7 -42
-15 -50 -13 -14 -15 -11 -15 23 0 50 -14 63 -67 63 l-43 0 0 -39z"/>
</g>
</svg>
